<svg width="157" height="48" viewBox="0 0 157 48" fill="none" xmlns="http://www.w3.org/2000/svg">
<g clip-path="url(#clip0_3_2)">
<rect width="157" height="48" fill="black"/>
<path d="M26 5L44.1865 38.75H7.81347L26 5Z" fill="#D9D9D9"/>
<line x1="53.5578" y1="38.7666" x2="72.5578" y2="2.76662" stroke="#454545"/>
<path d="M77.7 32C77.3933 32 77.1267 31.8867 76.9 31.66C76.6867 31.4333 76.58 31.1667 76.58 30.86V18.54C76.58 18.2333 76.6867 17.9667 76.9 17.74C77.1267 17.5133 77.3933 17.4 77.7 17.4H78.14C78.9 17.4 79.46 17.7333 79.82 18.4L84.76 27.32C84.76 27.3333 84.7667 27.34 84.78 27.34C84.7933 27.34 84.8 27.3333 84.8 27.32V18.54C84.8 18.2333 84.9133 17.9667 85.14 17.74C85.3667 17.5133 85.6333 17.4 85.94 17.4H86.38C86.6867 17.4 86.9467 17.5133 87.16 17.74C87.3867 17.9667 87.5 18.2333 87.5 18.54V30.86C87.5 31.1667 87.3867 31.4333 87.16 31.66C86.9467 31.8867 86.6867 32 86.38 32H85.94C85.18 32 84.62 31.6667 84.26 31L79.32 22.08C79.32 22.0667 79.3133 22.06 79.3 22.06C79.2867 22.06 79.28 22.0667 79.28 22.08V30.86C79.28 31.1667 79.1667 31.4333 78.94 31.66C78.7133 31.8867 78.4467 32 78.14 32H77.7ZM91.802 32C91.4954 32 91.2287 31.8867 91.002 31.66C90.7754 31.4333 90.662 31.1667 90.662 30.86V18.54C90.662 18.2333 90.7754 17.9667 91.002 17.74C91.2287 17.5133 91.4954 17.4 91.802 17.4H98.602C98.9087 17.4 99.1754 17.5133 99.402 17.74C99.6287 17.9667 99.742 18.2333 99.742 18.54C99.742 18.8467 99.6287 19.1133 99.402 19.34C99.1754 19.5533 98.9087 19.66 98.602 19.66H93.642C93.522 19.66 93.462 19.72 93.462 19.84V23.06C93.462 23.18 93.522 23.24 93.642 23.24H98.262C98.5687 23.24 98.822 23.3467 99.022 23.56C99.2354 23.7733 99.342 24.0267 99.342 24.32C99.342 24.6133 99.2354 24.8667 99.022 25.08C98.822 25.28 98.5687 25.38 98.262 25.38H93.642C93.522 25.38 93.462 25.44 93.462 25.56V29.56C93.462 29.68 93.522 29.74 93.642 29.74H98.602C98.9087 29.74 99.1754 29.8533 99.402 30.08C99.6287 30.2933 99.742 30.5533 99.742 30.86C99.742 31.1667 99.6287 31.4333 99.402 31.66C99.1754 31.8867 98.9087 32 98.602 32H91.802ZM102.953 32C102.7 32 102.507 31.8933 102.373 31.68C102.24 31.4533 102.233 31.2267 102.353 31L105.693 24.76C105.747 24.68 105.747 24.58 105.693 24.46L102.453 18.4C102.333 18.1733 102.34 17.9533 102.473 17.74C102.607 17.5133 102.8 17.4 103.053 17.4H103.913C104.26 17.4 104.58 17.4933 104.873 17.68C105.167 17.8667 105.387 18.1133 105.533 18.42L107.633 22.84C107.633 22.8533 107.64 22.86 107.653 22.86C107.667 22.86 107.673 22.8533 107.673 22.84L109.773 18.42C109.92 18.1133 110.14 17.8667 110.433 17.68C110.727 17.4933 111.047 17.4 111.393 17.4H112.173C112.44 17.4 112.633 17.5133 112.753 17.74C112.887 17.9533 112.893 18.1733 112.773 18.4L109.533 24.46C109.493 24.5533 109.493 24.6533 109.533 24.76L112.873 31C112.993 31.2267 112.987 31.4533 112.853 31.68C112.733 31.8933 112.54 32 112.273 32H111.353C111.007 32 110.68 31.9067 110.373 31.72C110.08 31.5333 109.867 31.2867 109.733 30.98L107.593 26.36C107.593 26.3467 107.587 26.34 107.573 26.34C107.56 26.34 107.553 26.3467 107.553 26.36L105.413 30.98C105.28 31.2867 105.06 31.5333 104.753 31.72C104.46 31.9067 104.14 32 103.793 32H102.953ZM115.579 19.72C115.273 19.72 115.006 19.6133 114.779 19.4C114.553 19.1733 114.439 18.9067 114.439 18.6V18.54C114.439 18.2333 114.553 17.9667 114.779 17.74C115.006 17.5133 115.273 17.4 115.579 17.4H124.099C124.406 17.4 124.673 17.5133 124.899 17.74C125.126 17.9667 125.239 18.2333 125.239 18.54V18.6C125.239 18.9067 125.126 19.1733 124.899 19.4C124.673 19.6133 124.406 19.72 124.099 19.72H121.419C121.313 19.72 121.259 19.78 121.259 19.9V30.86C121.259 31.1667 121.146 31.4333 120.919 31.66C120.693 31.8867 120.426 32 120.119 32H119.559C119.253 32 118.986 31.8867 118.759 31.66C118.533 31.4333 118.419 31.1667 118.419 30.86V19.9C118.419 19.78 118.366 19.72 118.259 19.72H115.579Z" fill="white"/>
<path d="M124.46 32C124.307 32 124.173 31.9433 124.06 31.83C123.947 31.7167 123.89 31.5833 123.89 31.43V30.87C123.89 30.7167 123.947 30.5833 124.06 30.47C124.173 30.3567 124.307 30.3 124.46 30.3H124.92C125.073 30.3 125.207 30.3567 125.32 30.47C125.433 30.5833 125.49 30.7167 125.49 30.87V31.43C125.49 31.5833 125.433 31.7167 125.32 31.83C125.207 31.9433 125.073 32 124.92 32H124.46ZM127.454 31.95C127.294 31.91 127.164 31.8233 127.064 31.69C126.964 31.55 126.914 31.3933 126.914 31.22V31.11C126.914 30.9767 126.968 30.8733 127.074 30.8C127.188 30.7267 127.308 30.71 127.434 30.75C127.874 30.8967 128.308 30.97 128.734 30.97C129.168 30.97 129.484 30.8367 129.684 30.57C129.891 30.2967 129.994 29.84 129.994 29.2V25.27C129.994 25.1167 130.051 24.9833 130.164 24.87C130.278 24.7567 130.411 24.7 130.564 24.7H130.884C131.038 24.7 131.168 24.7567 131.274 24.87C131.388 24.9833 131.444 25.1167 131.444 25.27V29.47C131.444 30.4033 131.238 31.0767 130.824 31.49C130.411 31.8967 129.751 32.1 128.844 32.1C128.344 32.1 127.881 32.05 127.454 31.95ZM134.843 28.92C134.043 28.6533 133.463 28.33 133.103 27.95C132.75 27.57 132.573 27.11 132.573 26.57C132.573 25.9633 132.777 25.4833 133.183 25.13C133.59 24.7767 134.16 24.6 134.893 24.6C135.513 24.6 136.053 24.67 136.513 24.81C136.673 24.8567 136.8 24.9533 136.893 25.1C136.993 25.24 137.043 25.3967 137.043 25.57V25.66C137.043 25.7867 136.987 25.8867 136.873 25.96C136.76 26.0267 136.643 26.0367 136.523 25.99C136.023 25.7967 135.513 25.7 134.993 25.7C134.66 25.7 134.407 25.7767 134.233 25.93C134.06 26.0833 133.973 26.2967 133.973 26.57C133.973 27.05 134.287 27.3933 134.913 27.6C135.813 27.8867 136.437 28.2133 136.783 28.58C137.137 28.9467 137.313 29.42 137.313 30C137.313 31.4 136.45 32.1 134.723 32.1C134.183 32.1 133.693 32.0167 133.253 31.85C133.093 31.79 132.967 31.6867 132.873 31.54C132.787 31.3933 132.743 31.23 132.743 31.05V30.93C132.743 30.8033 132.797 30.7133 132.903 30.66C133.01 30.6 133.12 30.5967 133.233 30.65C133.673 30.87 134.137 30.98 134.623 30.98C135.47 30.98 135.893 30.66 135.893 30.02C135.893 29.76 135.813 29.5467 135.653 29.38C135.493 29.2067 135.223 29.0533 134.843 28.92Z" fill="white"/>
</g>
<defs>
<clipPath id="clip0_3_2">
<rect width="157" height="48" fill="white"/>
</clipPath>
</defs>
</svg>
