<svg width="116" height="48" viewBox="0 0 116 48" fill="none" xmlns="http://www.w3.org/2000/svg">
  <path d="M116 0H0V48H116V0Z" fill="#2496ED"/>
  <path d="M21.25 9.5H19C10.9919 9.5 4.5 15.9919 4.5 24C4.5 32.0081 10.9919 38.5 19 38.5H21.25C29.2581 38.5 35.75 32.0081 35.75 24C35.75 15.9919 29.2581 9.5 21.25 9.5Z" fill="white"/>
  <rect x="12.2" y="18.2" width="3.5" height="3.5" fill="#2496ED"/>
  <rect x="16.5" y="18.2" width="3.5" height="3.5" fill="#2496ED"/>
  <rect x="20.8" y="18.2" width="3.5" height="3.5" fill="#2496ED"/>
  <rect x="16.5" y="13.9" width="3.5" height="3.5" fill="#2496ED"/>
  <rect x="20.8" y="13.9" width="3.5" height="3.5" fill="#2496ED"/>
  <path d="M12.1 23.7H25.8C25.2 26.9 22.6 29.2 19.2 29.2C16.15 29.2 13.6 27.2 12.8 24.35L12.1 23.7Z" fill="#2496ED"/>
  <path d="M26.35 21.8C27.6 21.6 28.45 20.9 28.95 19.75C29.55 20.8 29.65 22.2 29.1 23.35C28.6 24.35 27.75 25.05 26.65 25.35" stroke="#2496ED" stroke-width="1.35" stroke-linecap="round"/>
  <text x="41" y="29" fill="white" font-family="Arial, Helvetica, sans-serif" font-size="15" font-weight="700">Docker</text>
</svg>