<svg width="116" height="48" viewBox="0 0 116 48" fill="none" xmlns="http://www.w3.org/2000/svg">
  <path d="M116 0H0V48H116V0Z" fill="#F89820"/>
  <path d="M21.25 9.5H19C10.9919 9.5 4.5 15.9919 4.5 24C4.5 32.0081 10.9919 38.5 19 38.5H21.25C29.2581 38.5 35.75 32.0081 35.75 24C35.75 15.9919 29.2581 9.5 21.25 9.5Z" fill="white"/>
  <path d="M17.15 27.35C17.95 27.9 19 28.2 20.1 28.2C21.2 28.2 22.25 27.9 23.05 27.35" stroke="#F89820" stroke-width="1.7" stroke-linecap="round"/>
  <path d="M17.9 25.35H22.3C22.1 26.2 21.2 26.8 20.1 26.8C19 26.8 18.1 26.2 17.9 25.35Z" fill="#F89820"/>
  <path d="M20.2 16.1C22.55 17.45 18.35 18.55 20.8 20.05" stroke="#5382A1" stroke-width="1.5" stroke-linecap="round"/>
  <path d="M22 15.55C24 16.85 20.7 17.85 22.55 19.05" stroke="#5382A1" stroke-width="1.25" stroke-linecap="round"/>
  <text x="41" y="29" fill="white" font-family="Arial, Helvetica, sans-serif" font-size="16" font-weight="700">Java</text>
</svg>