<svg width="116" height="48" viewBox="0 0 116 48" fill="none" xmlns="http://www.w3.org/2000/svg">
  <path d="M116 0H0V48H116V0Z" fill="#42B883"/>
  <path d="M21.25 9.5H19C10.9919 9.5 4.5 15.9919 4.5 24C4.5 32.0081 10.9919 38.5 19 38.5H21.25C29.2581 38.5 35.75 32.0081 35.75 24C35.75 15.9919 29.2581 9.5 21.25 9.5Z" fill="white"/>
  <path d="M12.9 16H16.8L20.1 21.15L23.4 16H27.3L20.1 28.45L12.9 16Z" fill="#42B883"/>
  <path d="M15.95 16H18.6L20.1 18.45L21.6 16H24.25L20.1 23L15.95 16Z" fill="#35495E"/>
  <text x="41" y="29" fill="white" font-family="Arial, Helvetica, sans-serif" font-size="16" font-weight="700">Vue</text>
</svg>