<svg width="116" height="48" viewBox="0 0 116 48" fill="none" xmlns="http://www.w3.org/2000/svg">
  <path d="M116 0H0V48H116V0Z" fill="#F05032"/>
  <path d="M21.25 9.5H19C10.9919 9.5 4.5 15.9919 4.5 24C4.5 32.0081 10.9919 38.5 19 38.5H21.25C29.2581 38.5 35.75 32.0081 35.75 24C35.75 15.9919 29.2581 9.5 21.25 9.5Z" fill="white"/>
  <path d="M20.1 15.7L27.4 23L20.1 30.3L12.8 23L20.1 15.7Z" fill="#F05032"/>
  <path d="M20.1 18.4C19.35 18.4 18.75 19 18.75 19.75C18.75 20.35 19.15 20.9 19.75 21.05V24.1C19.15 24.25 18.75 24.8 18.75 25.4C18.75 26.15 19.35 26.75 20.1 26.75C20.85 26.75 21.45 26.15 21.45 25.4C21.45 24.8 21.05 24.25 20.45 24.1V21.65L22.15 23.35C22.15 24.1 22.8 24.7 23.55 24.7C24.35 24.7 25 24.05 25 23.25C25 22.45 24.35 21.8 23.55 21.8C23.4 21.8 23.25 21.85 23.1 21.9L21.35 20.15C21.45 19.95 21.5 19.75 21.5 19.5C21.5 18.75 20.9 18.15 20.15 18.15L20.1 18.4Z" fill="white"/>
  <text x="41" y="29" fill="white" font-family="Arial, Helvetica, sans-serif" font-size="15.5" font-weight="700">Git</text>
</svg>