<svg width="116" height="48" viewBox="0 0 116 48" fill="none" xmlns="http://www.w3.org/2000/svg">
  <path d="M116 0H0V48H116V0Z" fill="#181717"/>
  <path d="M21.25 9.5H19C10.9919 9.5 4.5 15.9919 4.5 24C4.5 32.0081 10.9919 38.5 19 38.5H21.25C29.2581 38.5 35.75 32.0081 35.75 24C35.75 15.9919 29.2581 9.5 21.25 9.5Z" fill="white"/>
  <path d="M20.1 15.8C15.95 15.8 12.6 19.15 12.6 23.3C12.6 26.6 14.7 29.45 17.65 30.45C18.05 30.5 18.2 30.3 18.2 30.05V28.9C15.95 29.4 15.45 27.95 15.45 27.95C15.1 27.05 14.6 26.8 14.6 26.8C13.85 26.3 14.65 26.3 14.65 26.3C15.5 26.35 15.95 27.15 15.95 27.15C16.7 28.45 17.95 28.05 18.25 27.85C18.35 27.3 18.55 26.95 18.8 26.7C17 26.5 15.1 25.8 15.1 22.75C15.1 21.9 15.4 21.15 15.95 20.55C15.85 20.35 15.6 19.55 16.05 18.5C16.05 18.5 16.7 18.3 18.2 19.3C18.8 19.15 19.45 19.05 20.1 19.05C20.75 19.05 21.4 19.15 22 19.3C23.5 18.3 24.15 18.5 24.15 18.5C24.6 19.55 24.35 20.35 24.25 20.55C24.8 21.15 25.1 21.9 25.1 22.75C25.1 25.8 23.2 26.5 21.4 26.7C21.75 27 22.05 27.55 22.05 28.4V30.05C22.05 30.3 22.2 30.5 22.6 30.45C25.55 29.45 27.6 26.6 27.6 23.3C27.6 19.15 24.25 15.8 20.1 15.8Z" fill="#181717"/>
  <text x="41" y="29" fill="white" font-family="Arial, Helvetica, sans-serif" font-size="15" font-weight="700">GitHub</text>
</svg>